<svg width="75" height="40" viewBox="0 0 75 40" fill="none" xmlns="http://www.w3.org/2000/svg">
<g clip-path="url(#clip0_8134_4482)">
<path d="M74.7687 38.7064C71.9383 38.7064 70.7034 37.2649 70.7034 32.1189V6.99961C70.7034 1.85355 71.9383 0.412044 74.7687 0.412044C75.078 0.412044 75.078 0 74.7687 0H53.1884V12.8914C53.1884 16.0107 50.6558 18.542 47.5379 18.542H33.0098V6.99961C33.0098 6.43353 33.0252 0.483927 33.056 0H2.88697C2.26955 0 1.95506 0.309354 1.8575 0.875432L0.00523315 10.6066C-0.0512463 10.9108 0.365932 10.9622 0.463487 10.6579C1.95634 5.45541 5.87268 0.617424 12.0482 0.617424C13.0007 0.617424 13.8645 1.00379 14.4871 1.62635C15.1096 2.25405 15.496 3.11407 15.496 4.06524V39.1172H19.361V6.52595C19.4021 3.91634 19.7936 2.33106 20.5907 1.43124C20.601 1.42097 20.6061 1.4107 20.6164 1.40557C21.2698 0.680321 22.995 0.412044 24.2195 0.412044C24.2298 0.412044 24.2452 0.412044 24.2555 0.406909C24.2657 0.412044 24.276 0.412044 24.2863 0.412044C26.7881 0.412044 28.8406 1.53907 29.0986 5.35272C29.1089 5.47594 29.114 5.60431 29.1243 5.73909C29.1345 5.97527 29.1397 6.22815 29.1448 6.48487C29.1499 6.65431 29.1499 6.82503 29.1499 6.99961V39.1185H33.0098V25.6096C33.0098 22.4853 35.5424 19.9591 38.6603 19.9591H53.1884V39.1198H57.0482V6.99961C57.0482 1.85355 59.0815 0.412044 61.9119 0.412044C61.9222 0.412044 61.9324 0.412044 61.9478 0.406909C61.9581 0.412044 61.9684 0.412044 61.9786 0.412044C64.809 0.412044 66.8423 1.85355 66.8423 6.99961V32.1189C66.8423 37.2649 65.6075 38.7064 62.7771 38.7064C62.4626 38.7064 62.4626 39.1185 62.7771 39.1185H74.7687C75.078 39.1185 75.078 38.7064 74.7687 38.7064Z" fill="#8A3121"/>
<path d="M29.15 39.1185V6.99961C29.15 1.85355 27.1167 0.412044 24.2864 0.412044C24.2761 0.412044 24.2658 0.412044 24.2556 0.406909C24.2401 0.412044 24.2299 0.412044 24.2196 0.412044C21.3892 0.412044 19.356 1.85355 19.356 6.99961V39.1185H15.4961V0H33.0099V39.1185" fill="#8A3121"/>
</g>
<defs>
<clipPath id="clip0_8134_4482">
<rect width="75.0009" height="39.1185" fill="white"/>
</clipPath>
</defs>
</svg>
